# xmcd CD database file
# Copyright (C) 1997 Ti Kan
# 
# Track frame offsets:
#     150
#     18515
#     40012
#     58189
# 
# Disc length: 975 seconds
# 
# Revision: 1
# Processed by: cddbd v1.4b41PL1 Copyright (c) Steve Scherf et al.
# Submitted via: DiscPlay 4.0.3
# 
DISCID=2c03cd04
DTITLE=Wade Hayes - I'm Still Dancin' With You
DYEAR=1900
DGENRE=
TTITLE0=Old Enough To Know Better
TTITLE1=Don't Make Me Come To Tulsa
TTITLE2=Don't Stop
TTITLE3=I'm Still Dancin' With You
EXTD=
EXTT0=
EXTT1=
EXTT2=
EXTT3=
PLAYORDER=
